<svg xmlns="http://www.w3.org/2000/svg" viewBox="0 0 64 64" aria-hidden="true">
  <defs>
    <linearGradient id="g" x1="12" y1="10" x2="54" y2="56" gradientUnits="userSpaceOnUse">
      <stop offset="0" stop-color="#7c5cff"/>
      <stop offset="1" stop-color="#33d6ff"/>
    </linearGradient>
  </defs>
  <circle cx="32" cy="32" r="30" fill="url(#g)"/>
  <path fill="rgba(255,255,255,0.92)" d="M28.7 14.8h6.6l1 5.3c1 .3 2 .7 2.9 1.2l4.5-3 4.7 4.7-3 4.5c.5.9.9 1.9 1.2 2.9l5.3 1v6.6l-5.3 1c-.3 1-.7 2-1.2 2.9l3 4.5-4.7 4.7-4.5-3c-.9.5-1.9.9-2.9 1.2l-1 5.3h-6.6l-1-5.3c-1-.3-2-.7-2.9-1.2l-4.5 3-4.7-4.7 3-4.5c-.5-.9-.9-1.9-1.2-2.9l-5.3-1v-6.6l5.3-1c.3-1 .7-2 1.2-2.9l-3-4.5 4.7-4.7 4.5 3c.9-.5 1.9-.9 2.9-1.2l1-5.3Zm3.3 16.2a11 11 0 1 0 0 22 11 11 0 0 0 0-22Z"/>
</svg>
